<?xml version="1.0" standalone="no"?>
<!DOCTYPE svg PUBLIC "-//W3C//DTD SVG 20010904//EN"
 "http://www.w3.org/TR/2001/REC-SVG-20010904/DTD/svg10.dtd">
<svg version="1.0" xmlns="http://www.w3.org/2000/svg"
 width="1200.000000pt" height="1200.000000pt" viewBox="0 0 1200.000000 1200.000000"
 preserveAspectRatio="xMidYMid meet">

<g transform="translate(0.000000,1200.000000) scale(0.100000,-0.100000)"
fill="#000000" stroke="none">
<path d="M5672 10689 c-482 -43 -993 -202 -1427 -443 -169 -94 -462 -296 -555
-382 l-25 -23 3 -1230 2 -1231 240 0 240 0 0 573 c0 322 5 611 10 661 l11 89
-104 106 c-115 118 -144 163 -182 275 -29 86 -35 220 -15 311 15 68 71 180
117 235 151 183 414 264 625 191 113 -39 178 -81 284 -183 l60 -59 60 16 c160
42 349 43 514 4 l91 -21 87 84 c181 172 379 224 600 159 78 -24 194 -95 254
-158 49 -51 102 -141 130 -222 19 -54 23 -86 22 -181 -1 -188 -46 -287 -210
-459 l-96 -101 1 -977 c1 -618 -2 -1017 -9 -1083 -20 -203 -84 -463 -161 -657
-12 -29 -10 -35 14 -70 41 -60 59 -121 60 -203 0 -62 -5 -86 -28 -137 -63
-142 -216 -226 -367 -202 l-52 8 -136 -132 c-197 -193 -346 -300 -583 -417
-199 -99 -437 -173 -672 -211 -38 -6 -235 -14 -437 -16 l-368 -5 0 -119 0
-118 58 -49 c98 -81 262 -197 384 -271 452 -274 913 -437 1436 -508 180 -24
722 -24 904 0 973 131 1838 632 2417 1401 821 1092 960 2530 362 3751 -401
818 -1070 1434 -1926 1773 -292 116 -679 205 -1000 232 -140 11 -499 11 -633
-1z"/>
<path d="M4345 9477 c-98 -47 -152 -140 -142 -247 5 -61 36 -128 74 -162 18
-17 21 -15 61 47 60 90 142 182 223 250 38 32 69 61 69 66 0 4 -21 20 -46 35
-67 40 -170 44 -239 11z"/>
<path d="M6013 9475 c-74 -38 -82 -50 -47 -77 64 -47 203 -199 255 -276 l54
-83 28 33 c114 133 92 311 -49 394 -70 41 -171 45 -241 9z"/>
<path d="M3061 9182 c-355 -505 -566 -1068 -643 -1717 -19 -159 -16 -594 6
-765 62 -502 212 -959 454 -1385 45 -78 186 -297 223 -344 19 -23 19 25 19
2133 0 1186 -1 2156 -2 2156 -2 -1 -27 -36 -57 -78z"/>
<path d="M4645 8721 c-35 -15 -74 -62 -81 -98 -14 -77 37 -155 112 -169 159
-30 236 188 92 262 -29 15 -91 18 -123 5z"/>
<path d="M5810 8722 c-145 -64 -102 -272 55 -272 78 0 139 66 137 148 0 50
-21 85 -65 112 -32 20 -96 25 -127 12z"/>
<path d="M5202 8665 c-62 -28 -94 -58 -119 -111 -24 -52 -24 -57 -21 -297 l3
-244 28 -41 c43 -65 97 -96 177 -100 77 -5 123 14 177 70 56 58 63 96 63 327
0 216 -6 257 -43 312 -40 59 -99 93 -170 96 -40 2 -74 -2 -95 -12z"/>
<path d="M3683 6793 c-10 -4 -13 -172 -13 -794 l0 -789 170 0 170 0 0 348 c0
289 3 358 16 403 65 221 279 357 515 328 119 -14 214 -64 299 -155 89 -96 128
-188 137 -328 9 -128 26 -74 20 59 -6 123 -31 200 -99 302 -75 111 -181 186
-324 229 -84 26 -258 25 -339 -1 -33 -11 -64 -20 -70 -20 -6 0 -10 77 -10 210
l0 210 -230 2 c-127 1 -236 -1 -242 -4z"/>
<path d="M3413 2490 l-43 -19 0 -481 0 -480 269 0 269 0 17 43 c9 23 19 48 22
55 4 9 -47 12 -236 12 l-241 0 0 445 c0 245 -3 445 -7 445 -5 0 -27 -9 -50
-20z"/>
<path d="M6533 2493 l-53 -16 0 -484 0 -484 23 7 c12 3 34 13 50 21 l27 14 0
173 0 174 138 4 c126 3 142 6 194 31 61 30 105 74 140 140 19 35 23 58 23 132
0 74 -4 97 -23 132 -35 66 -79 110 -140 140 -53 26 -67 28 -192 30 -99 1 -149
-2 -187 -14z m330 -107 c39 -17 92 -71 106 -109 6 -16 11 -48 11 -72 0 -57
-14 -92 -53 -134 -50 -52 -81 -61 -222 -61 l-125 0 0 195 0 195 125 0 c85 0
136 -5 158 -14z"/>
<path d="M4385 2251 c-111 -29 -194 -135 -195 -248 l0 -52 49 20 c44 19 49 25
55 58 20 127 191 166 266 61 12 -16 24 -45 27 -63 5 -30 2 -33 -34 -46 -104
-38 -288 -122 -310 -143 -33 -31 -51 -66 -56 -114 -17 -148 162 -263 317 -204
l25 9 -16 45 -17 45 -67 -6 c-68 -6 -68 -6 -104 30 -72 72 -43 115 129 186 69
28 127 51 130 51 3 0 6 -83 6 -185 0 -121 4 -185 10 -185 6 0 29 9 50 20 l40
20 0 258 c0 281 -3 297 -64 369 -49 58 -165 94 -241 74z"/>
<path d="M5945 2251 c-111 -29 -194 -135 -195 -248 l0 -52 49 20 c44 19 49 25
55 58 20 127 191 166 266 61 12 -16 24 -45 27 -63 5 -30 2 -33 -34 -46 -104
-38 -288 -122 -310 -143 -33 -31 -51 -66 -56 -114 -17 -148 162 -263 317 -204
l25 9 -16 45 -17 45 -67 -6 c-68 -6 -68 -6 -104 30 -72 72 -43 115 129 186 69
28 127 51 130 51 3 0 6 -83 6 -185 0 -121 4 -185 10 -185 6 0 29 9 50 20 l40
20 0 258 c0 281 -3 297 -64 369 -49 58 -165 94 -241 74z"/>
<path d="M7489 2247 c-64 -18 -123 -68 -153 -129 -25 -50 -26 -58 -26 -239 0
-185 0 -187 28 -240 80 -153 280 -182 399 -57 45 46 73 113 73 175 l0 51 -49
-20 c-42 -18 -50 -26 -54 -55 -21 -128 -192 -169 -267 -63 -12 16 -23 44 -26
62 l-5 33 198 87 198 87 3 53 c2 29 -1 69 -7 89 -37 124 -184 202 -312 166z
m148 -117 c39 -23 63 -59 66 -95 2 -25 -6 -30 -142 -91 -79 -35 -145 -64 -147
-64 -2 0 -4 35 -4 78 0 91 18 135 69 169 43 29 113 31 158 3z"/>
<path d="M8269 2247 c-64 -18 -123 -68 -153 -129 -25 -50 -26 -58 -26 -239 0
-185 0 -187 28 -240 80 -153 280 -182 399 -57 45 46 73 113 73 175 l0 51 -49
-20 c-42 -18 -50 -26 -54 -55 -21 -128 -192 -169 -267 -63 -12 16 -23 44 -26
62 l-5 33 198 87 198 87 3 53 c2 29 -1 69 -7 89 -37 124 -184 202 -312 166z
m148 -117 c39 -23 63 -59 66 -95 2 -25 -6 -30 -142 -91 -79 -35 -145 -64 -147
-64 -2 0 -4 35 -4 78 0 91 18 135 69 169 43 29 113 31 158 3z"/>
<path d="M4994 2203 c-11 -27 -20 -51 -22 -55 -2 -4 73 -9 167 -10 l170 -3
-180 -309 c-98 -170 -179 -311 -179 -313 0 -1 112 -3 249 -3 l248 0 19 47 c11
27 20 51 22 55 2 4 -77 9 -175 10 l-179 3 178 308 c98 170 178 311 178 313 0
2 -107 4 -239 4 l-238 0 -19 -47z"/>
</g>
</svg>
