<svg width="1600" height="1600" viewBox="0 0 1200 1200" xmlns="http://www.w3.org/2000/svg" xmlns:xlink="http://www.w3.org/1999/xlink" overflow="hidden"><style>
.MsftOfcResponsive_Fill_40356f {
 fill:#40356F; 
}
</style>
<g transform="matrix(0.1 0 0 -0.1 0 1200)"><path d="M5672 10689C5190 10646 4679 10487 4245 10246 4076 10152 3783 9950 3690 9864L3665 9841 3668 8611 3670 7380 3910 7380 4150 7380 4150 7953C4150 8275 4155 8564 4160 8614L4171 8703 4067 8809C3952 8927 3923 8972 3885 9084 3856 9170 3850 9304 3870 9395 3885 9463 3941 9575 3987 9630 4138 9813 4401 9894 4612 9821 4725 9782 4790 9740 4896 9638L4956 9579 5016 9595C5176 9637 5365 9638 5530 9599L5621 9578 5708 9662C5889 9834 6087 9886 6308 9821 6386 9797 6502 9726 6562 9663 6611 9612 6664 9522 6692 9441 6711 9387 6715 9355 6714 9260 6713 9072 6668 8973 6504 8801L6408 8700 6409 7723C6410 7105 6407 6706 6400 6640 6380 6437 6316 6177 6239 5983 6227 5954 6229 5948 6253 5913 6294 5853 6312 5792 6313 5710 6313 5648 6308 5624 6285 5573 6222 5431 6069 5347 5918 5371L5866 5379 5730 5247C5533 5054 5384 4947 5147 4830 4948 4731 4710 4657 4475 4619 4437 4613 4240 4605 4038 4603L3670 4598 3670 4479 3670 4361 3728 4312C3826 4231 3990 4115 4112 4041 4564 3767 5025 3604 5548 3533 5728 3509 6270 3509 6452 3533 7425 3664 8290 4165 8869 4934 9690 6026 9829 7464 9231 8685 8830 9503 8161 10119 7305 10458 7013 10574 6626 10663 6305 10690 6165 10701 5806 10701 5672 10689Z" class="MsftOfcResponsive_Fill_40356f" fill="#40356F"/><path d="M4345 9477C4247 9430 4193 9337 4203 9230 4208 9169 4239 9102 4277 9068 4295 9051 4298 9053 4338 9115 4398 9205 4480 9297 4561 9365 4599 9397 4630 9426 4630 9431 4630 9435 4609 9451 4584 9466 4517 9506 4414 9510 4345 9477Z" class="MsftOfcResponsive_Fill_40356f" fill="#40356F"/><path d="M6013 9475C5939 9437 5931 9425 5966 9398 6030 9351 6169 9199 6221 9122L6275 9039 6303 9072C6417 9205 6395 9383 6254 9466 6184 9507 6083 9511 6013 9475Z" class="MsftOfcResponsive_Fill_40356f" fill="#40356F"/><path d="M3061 9182C2706 8677 2495 8114 2418 7465 2399 7306 2402 6871 2424 6700 2486 6198 2636 5741 2878 5315 2923 5237 3064 5018 3101 4971 3120 4948 3120 4996 3120 7104 3120 8290 3119 9260 3118 9260 3116 9259 3091 9224 3061 9182Z" class="MsftOfcResponsive_Fill_40356f" fill="#40356F"/><path d="M4645 8721C4610 8706 4571 8659 4564 8623 4550 8546 4601 8468 4676 8454 4835 8424 4912 8642 4768 8716 4739 8731 4677 8734 4645 8721Z" class="MsftOfcResponsive_Fill_40356f" fill="#40356F"/><path d="M5810 8722C5665 8658 5708 8450 5865 8450 5943 8450 6004 8516 6002 8598 6002 8648 5981 8683 5937 8710 5905 8730 5841 8735 5810 8722Z" class="MsftOfcResponsive_Fill_40356f" fill="#40356F"/><path d="M5202 8665C5140 8637 5108 8607 5083 8554 5059 8502 5059 8497 5062 8257L5065 8013 5093 7972C5136 7907 5190 7876 5270 7872 5347 7867 5393 7886 5447 7942 5503 8000 5510 8038 5510 8269 5510 8485 5504 8526 5467 8581 5427 8640 5368 8674 5297 8677 5257 8679 5223 8675 5202 8665Z" class="MsftOfcResponsive_Fill_40356f" fill="#40356F"/><path d="M3683 6793C3673 6789 3670 6621 3670 5999L3670 5210 3840 5210 4010 5210 4010 5558C4010 5847 4013 5916 4026 5961 4091 6182 4305 6318 4541 6289 4660 6275 4755 6225 4840 6134 4929 6038 4968 5946 4977 5806 4986 5678 5003 5732 4997 5865 4991 5988 4966 6065 4898 6167 4823 6278 4717 6353 4574 6396 4490 6422 4316 6421 4235 6395 4202 6384 4171 6375 4165 6375 4159 6375 4155 6452 4155 6585L4155 6795 3925 6797C3798 6798 3689 6796 3683 6793Z" class="MsftOfcResponsive_Fill_40356f" fill="#40356F"/><path d="M3413 2490 3370 2471 3370 1990 3370 1510 3639 1510 3908 1510 3925 1553C3934 1576 3944 1601 3947 1608 3951 1617 3900 1620 3711 1620L3470 1620 3470 2065C3470 2310 3467 2510 3463 2510 3458 2510 3436 2501 3413 2490Z" class="MsftOfcResponsive_Fill_40356f" fill="#40356F"/><path d="M6533 2493 6480 2477 6480 1993 6480 1509 6503 1516C6515 1519 6537 1529 6553 1537L6580 1551 6580 1724 6580 1898 6718 1902C6844 1905 6860 1908 6912 1933 6973 1963 7017 2007 7052 2073 7071 2108 7075 2131 7075 2205 7075 2279 7071 2302 7052 2337 7017 2403 6973 2447 6912 2477 6859 2503 6845 2505 6720 2507 6621 2508 6571 2505 6533 2493ZM6863 2386C6902 2369 6955 2315 6969 2277 6975 2261 6980 2229 6980 2205 6980 2148 6966 2113 6927 2071 6877 2019 6846 2010 6705 2010L6580 2010 6580 2205 6580 2400 6705 2400C6790 2400 6841 2395 6863 2386Z" class="MsftOfcResponsive_Fill_40356f" fill="#40356F"/><path d="M4385 2251C4274 2222 4191 2116 4190 2003L4190 1951 4239 1971C4283 1990 4288 1996 4294 2029 4314 2156 4485 2195 4560 2090 4572 2074 4584 2045 4587 2027 4592 1997 4589 1994 4553 1981 4449 1943 4265 1859 4243 1838 4210 1807 4192 1772 4187 1724 4170 1576 4349 1461 4504 1520L4529 1529 4513 1574 4496 1619 4429 1613C4361 1607 4361 1607 4325 1643 4253 1715 4282 1758 4454 1829 4523 1857 4581 1880 4584 1880 4587 1880 4590 1797 4590 1695 4590 1574 4594 1510 4600 1510 4606 1510 4629 1519 4650 1530L4690 1550 4690 1808C4690 2089 4687 2105 4626 2177 4577 2235 4461 2271 4385 2251Z" class="MsftOfcResponsive_Fill_40356f" fill="#40356F"/><path d="M5945 2251C5834 2222 5751 2116 5750 2003L5750 1951 5799 1971C5843 1990 5848 1996 5854 2029 5874 2156 6045 2195 6120 2090 6132 2074 6144 2045 6147 2027 6152 1997 6149 1994 6113 1981 6009 1943 5825 1859 5803 1838 5770 1807 5752 1772 5747 1724 5730 1576 5909 1461 6064 1520L6089 1529 6073 1574 6056 1619 5989 1613C5921 1607 5921 1607 5885 1643 5813 1715 5842 1758 6014 1829 6083 1857 6141 1880 6144 1880 6147 1880 6150 1797 6150 1695 6150 1574 6154 1510 6160 1510 6166 1510 6189 1519 6210 1530L6250 1550 6250 1808C6250 2089 6247 2105 6186 2177 6137 2235 6021 2271 5945 2251Z" class="MsftOfcResponsive_Fill_40356f" fill="#40356F"/><path d="M7489 2247C7425 2229 7366 2179 7336 2118 7311 2068 7310 2060 7310 1879 7310 1694 7310 1692 7338 1639 7418 1486 7618 1457 7737 1582 7782 1628 7810 1695 7810 1757L7810 1808 7761 1788C7719 1770 7711 1762 7707 1733 7686 1605 7515 1564 7440 1670 7428 1686 7417 1714 7414 1732L7409 1765 7607 1852 7805 1939 7808 1992C7810 2021 7807 2061 7801 2081 7764 2205 7617 2283 7489 2247ZM7637 2130C7676 2107 7700 2071 7703 2035 7705 2010 7697 2005 7561 1944 7482 1909 7416 1880 7414 1880 7412 1880 7410 1915 7410 1958 7410 2049 7428 2093 7479 2127 7522 2156 7592 2158 7637 2130Z" class="MsftOfcResponsive_Fill_40356f" fill="#40356F"/><path d="M8269 2247C8205 2229 8146 2179 8116 2118 8091 2068 8090 2060 8090 1879 8090 1694 8090 1692 8118 1639 8198 1486 8398 1457 8517 1582 8562 1628 8590 1695 8590 1757L8590 1808 8541 1788C8499 1770 8491 1762 8487 1733 8466 1605 8295 1564 8220 1670 8208 1686 8197 1714 8194 1732L8189 1765 8387 1852 8585 1939 8588 1992C8590 2021 8587 2061 8581 2081 8544 2205 8397 2283 8269 2247ZM8417 2130C8456 2107 8480 2071 8483 2035 8485 2010 8477 2005 8341 1944 8262 1909 8196 1880 8194 1880 8192 1880 8190 1915 8190 1958 8190 2049 8208 2093 8259 2127 8302 2156 8372 2158 8417 2130Z" class="MsftOfcResponsive_Fill_40356f" fill="#40356F"/><path d="M4994 2203C4983 2176 4974 2152 4972 2148 4970 2144 5045 2139 5139 2138L5309 2135 5129 1826C5031 1656 4950 1515 4950 1513 4950 1512 5062 1510 5199 1510L5447 1510 5466 1557C5477 1584 5486 1608 5488 1612 5490 1616 5411 1621 5313 1622L5134 1625 5312 1933C5410 2103 5490 2244 5490 2246 5490 2248 5383 2250 5251 2250L5013 2250 4994 2203Z" class="MsftOfcResponsive_Fill_40356f" fill="#40356F"/></g></svg>